<svg id="_0030_construction_site" data-name="0030_construction_site" xmlns="http://www.w3.org/2000/svg" viewBox="0 0 500 500" data-imageid="construction-site-5" imageName="Construction Site" class="illustrations_image" style="width: 159px;"><defs><style>.cls-1_construction-site-5{fill:#093f68;}.cls-2_construction-site-5{fill:#68e1fd;}.cls-3_construction-site-5{fill:#f56132;}.cls-4_construction-site-5{fill:#ffbc0e;}</style></defs><g id="material_construction-site-5"><path class="cls-1_construction-site-5" d="M284.7,259.86a2.12,2.12,0,0,1-1.53-.64,2.14,2.14,0,0,1,0-3l32.24-31.68a2.15,2.15,0,0,1,3,0l32.24,31.68a2.15,2.15,0,0,1-3,3.06l-30.72-30.19-30.73,30.19A2.13,2.13,0,0,1,284.7,259.86Z"/><path class="cls-1_construction-site-5" d="M316.58,229.74a7.26,7.26,0,0,1-3.84-1c-1.47-.89-3.21-2.82-3.21-7,0-5.22,2.82-7.69,5.26-8.63V163.68a2.15,2.15,0,1,1,4.3,0v51.13a2.16,2.16,0,0,1-2,2.15c-.52,0-3.26.55-3.26,4.8,0,1.2.2,2.76,1.14,3.33,1.58,1,5.11-.26,6.48-1a2.15,2.15,0,0,1,2,3.82A16.73,16.73,0,0,1,316.58,229.74Z"/><rect class="cls-2_construction-site-5 targetColor" x="276.17" y="255.9" width="80.23" height="23.53" style="fill: rgb(108, 99, 255);"/><path class="cls-1_construction-site-5" d="M356.39,281.58H276.17a2.15,2.15,0,0,1-2.15-2.15V255.9a2.15,2.15,0,0,1,2.15-2.15h80.22a2.15,2.15,0,0,1,2.15,2.15v23.53A2.15,2.15,0,0,1,356.39,281.58Zm-78.07-4.3h75.92V258.05H278.32Z"/></g><g id="crane_construction-site-5"><path class="cls-1_construction-site-5" d="M192.36,409.06H150.83a2.15,2.15,0,0,1-2.15-2.15V162.3a2.15,2.15,0,0,1,2.15-2.15h41.53a2.15,2.15,0,0,1,2.15,2.15V406.91A2.15,2.15,0,0,1,192.36,409.06ZM153,404.76h37.23V164.45H153Z"/><path class="cls-1_construction-site-5" d="M345.8,164.45H95.59a2.15,2.15,0,0,1-2.15-2.15V120.77a2.15,2.15,0,0,1,2.15-2.15H381.46a2.15,2.15,0,0,1,2,1.25,2.13,2.13,0,0,1-.32,2.3L347.43,163.7A2.17,2.17,0,0,1,345.8,164.45Zm-248.06-4.3H344.81l32-37.23h-279Z"/><path class="cls-1_construction-site-5" d="M192.36,122.92H150.83a2.15,2.15,0,0,1-2-3l20.76-49.87a2.16,2.16,0,0,1,2-1.32,2.14,2.14,0,0,1,2,1.32l20.76,49.87a2.15,2.15,0,0,1-2,3Zm-38.3-4.3h35.07L171.6,76.5Z"/><path class="cls-1_construction-site-5" d="M381.46,122.92a2.2,2.2,0,0,1-.5-.06L172,73.21,96.77,122.57a2.15,2.15,0,0,1-2.36-3.6l76-49.87a2.14,2.14,0,0,1,1.67-.29L382,118.68a2.15,2.15,0,0,1-.5,4.24Z"/><path class="cls-1_construction-site-5" d="M177.13,164.45a2.13,2.13,0,0,1-1.53-.65l-39.24-40-39.23,40a2.15,2.15,0,0,1-3.07-3l40.77-41.53a2.22,2.22,0,0,1,3.07,0l40.77,41.53a2.16,2.16,0,0,1-1.54,3.66Z"/><path class="cls-1_construction-site-5" d="M150.83,246a2.12,2.12,0,0,1-1.53-.64,2.15,2.15,0,0,1,0-3l40-39.24-40-39.23a2.15,2.15,0,0,1,3-3.07l41.52,40.77a2.12,2.12,0,0,1,.65,1.53,2.14,2.14,0,0,1-.65,1.54l-41.52,40.77A2.16,2.16,0,0,1,150.83,246Z"/><path class="cls-1_construction-site-5" d="M150.83,327.52a2.12,2.12,0,0,1-1.53-.64,2.15,2.15,0,0,1,0-3l40-39.24-40-39.23a2.15,2.15,0,0,1,3-3.07l41.52,40.77a2.1,2.1,0,0,1,.65,1.53,2.14,2.14,0,0,1-.65,1.54l-41.52,40.77A2.16,2.16,0,0,1,150.83,327.52Z"/><path class="cls-1_construction-site-5" d="M150.83,409.06a2.09,2.09,0,0,1-1.53-.65,2.15,2.15,0,0,1,0-3l40-39.23-40-39.23a2.15,2.15,0,0,1,3-3.07l41.52,40.77a2.1,2.1,0,0,1,.65,1.53,2.14,2.14,0,0,1-.65,1.54l-41.52,40.76A2.17,2.17,0,0,1,150.83,409.06Z"/><path class="cls-1_construction-site-5" d="M179.93,164.45a2.16,2.16,0,0,1-1.54-3.66l40.77-41.53a2.17,2.17,0,0,1,1.54-.64h0a2.15,2.15,0,0,1,1.53.64L263,160.79a2.15,2.15,0,1,1-3.07,3l-39.23-40-39.24,40A2.15,2.15,0,0,1,179.93,164.45Z"/><path class="cls-1_construction-site-5" d="M345.8,164.45a2.17,2.17,0,0,1-1.54-.65l-39.23-40-39.24,40a2.15,2.15,0,0,1-3.07-3l40.77-41.53a2.22,2.22,0,0,1,3.07,0l40.77,41.53a2.16,2.16,0,0,1-1.53,3.66Z"/><rect class="cls-3_construction-site-5" x="192.36" y="163.68" width="40.83" height="69.56"/><path class="cls-1_construction-site-5" d="M233.19,235.39H192.36a2.15,2.15,0,0,1-2.15-2.15V163.68a2.15,2.15,0,0,1,2.15-2.15h40.83a2.15,2.15,0,0,1,2.15,2.15v69.56A2.15,2.15,0,0,1,233.19,235.39Zm-38.68-4.31H231V165.83H194.51Z"/><rect class="cls-3_construction-site-5" x="126.26" y="406.91" width="86.51" height="22.19" rx="4.07"/><path class="cls-1_construction-site-5" d="M204,431.25H135a10.92,10.92,0,0,1-10.91-10.91v-4.67A10.92,10.92,0,0,1,135,404.76h69a10.92,10.92,0,0,1,10.91,10.91v4.67A10.92,10.92,0,0,1,204,431.25Zm-69-22.19a6.62,6.62,0,0,0-6.61,6.61v4.67A6.62,6.62,0,0,0,135,427h69a6.62,6.62,0,0,0,6.6-6.61v-4.67a6.61,6.61,0,0,0-6.6-6.61Z"/><rect class="cls-4_construction-site-5" x="207.76" y="175.79" width="25.43" height="27.27"/><path class="cls-1_construction-site-5" d="M233.19,205.21H207.76a2.15,2.15,0,0,1-2.15-2.15V175.79a2.15,2.15,0,0,1,2.15-2.15h25.43a2.15,2.15,0,0,1,2.15,2.15v27.27A2.15,2.15,0,0,1,233.19,205.21Zm-23.28-4.3H231v-23H209.91Z"/></g><g id="building_construction-site-5"><polygon class="cls-2_construction-site-5 targetColor" points="356.39 333.98 356.39 376.88 316.28 376.88 276.17 376.88 276.17 429.1 396.51 429.1 396.51 333.98 356.39 333.98" style="fill: rgb(108, 99, 255);"/><path class="cls-1_construction-site-5" d="M396.51,431.25H276.17A2.15,2.15,0,0,1,274,429.1V376.88a2.15,2.15,0,0,1,2.15-2.15h78.07V334a2.15,2.15,0,0,1,2.15-2.15h40.12a2.15,2.15,0,0,1,2.15,2.15V429.1A2.15,2.15,0,0,1,396.51,431.25ZM278.32,427h116V336.13H358.54v40.75a2.15,2.15,0,0,1-2.15,2.15H278.32Z"/><path class="cls-1_construction-site-5" d="M396.51,379a2.15,2.15,0,0,1-2.15-2.15V292.19a2.15,2.15,0,0,1,4.3,0v84.69A2.15,2.15,0,0,1,396.51,379Z"/><path class="cls-1_construction-site-5" d="M356.39,379a2.15,2.15,0,0,1-2.15-2.15V292.19a2.15,2.15,0,0,1,4.3,0v84.69A2.15,2.15,0,0,1,356.39,379Z"/><path class="cls-1_construction-site-5" d="M316.28,379a2.15,2.15,0,0,1-2.15-2.15v-73.4a2.15,2.15,0,1,1,4.3,0v73.4A2.15,2.15,0,0,1,316.28,379Z"/><path class="cls-1_construction-site-5" d="M356.39,379a2.15,2.15,0,0,1-2.15-2.15V292.19a2.15,2.15,0,0,1,4.3,0v84.69A2.15,2.15,0,0,1,356.39,379Z"/><path class="cls-1_construction-site-5" d="M276.17,379a2.15,2.15,0,0,1-2.15-2.15v-63a2.15,2.15,0,0,1,4.3,0v63A2.15,2.15,0,0,1,276.17,379Z"/><path class="cls-1_construction-site-5" d="M356.39,336.13H276.17a2.15,2.15,0,0,1,0-4.3h80.22a2.15,2.15,0,1,1,0,4.3Z"/><rect class="cls-1_construction-site-5" x="323.03" y="402.49" width="26.61" height="26.61"/><path class="cls-1_construction-site-5" d="M349.64,431.25H323a2.15,2.15,0,0,1-2.15-2.15V402.49a2.15,2.15,0,0,1,2.15-2.15h26.61a2.15,2.15,0,0,1,2.15,2.15V429.1A2.15,2.15,0,0,1,349.64,431.25ZM325.18,427h22.31V404.64H325.18Z"/></g><g id="ground_construction-site-5"><path class="cls-1_construction-site-5" d="M451.64,431.25H48.36a2.15,2.15,0,1,1,0-4.3H451.64a2.15,2.15,0,1,1,0,4.3Z"/></g></svg>